<svg width="133" height="133" viewBox="0 0 133 133" fill="none" xmlns="http://www.w3.org/2000/svg">
<path d="M124.25 12.4688C123.092 10.4461 120.235 6.20676 116.73 5.59718C115.289 5.3478 112.66 6.17905 110.933 6.84405C109.886 7.25968 109.124 8.17405 108.927 9.28239L106.952 20.266L103.352 16.348C102.31 15.2147 100.551 15.1399 99.4177 16.1818C98.4258 17.0934 98.2457 18.5619 98.919 19.673L106.093 31.5405C104.663 36.9547 101.488 47.2788 99.9442 52.862C99.825 53.2915 99.5701 53.66 99.293 53.9787C94.6463 59.3984 89.2127 65.6965 84.8293 71.338L66.5002 71.4987L48.1656 71.338C43.7572 65.6633 38.3984 59.4566 33.7019 53.9787C33.4275 53.66 33.1893 53.2832 33.0507 52.862C31.233 47.2511 28.4123 36.8633 26.9022 31.5405L34.0815 19.673C34.7548 18.5619 34.5747 17.0934 33.5827 16.1818C32.4494 15.1399 30.69 15.2147 29.6481 16.348L26.0488 20.266L24.0732 9.28239C23.8765 8.17405 23.1117 7.25968 22.0671 6.84405C20.3409 6.17905 17.7114 5.3478 16.2705 5.59718C12.7654 6.20676 9.90871 10.4461 8.7505 12.4688C8.35427 13.1338 8.24067 13.882 8.35427 14.6301L10.5599 26.7386C10.8425 28.4288 11.8317 29.9251 13.2448 30.8949L15.0181 32.1279C15.8217 38.3844 17.365 49.4345 18.623 55.7714C19.0469 57.9105 19.7424 60.0136 20.8452 61.9227C26.0765 69.6616 31.6071 77.9492 37.412 85.2448C38.9581 87.1428 41.3216 88.3426 43.9595 88.3204L66.5002 88.1237L89.0382 88.3204C91.676 88.3426 94.0395 87.14 95.5856 85.2448C101.371 77.9741 106.957 69.6145 112.152 61.9227C113.255 60.0163 113.987 57.916 114.375 55.7714C115.516 49.4872 117.173 38.4177 117.98 32.1279L119.753 30.8949C121.166 29.9251 122.155 28.4288 122.438 26.7386L124.643 14.6301C124.76 13.882 124.646 13.1338 124.25 12.4688Z" fill="url(#paint0_linear)"/>
<path d="M105.838 71.5568L92.6429 61.4433C91.4293 60.5123 89.6892 60.7422 88.7582 61.9559L85.2309 66.5555C84.1836 67.9242 82.5571 68.725 80.8336 68.725C80.5926 68.725 80.3349 68.7112 80.0994 68.6779C76.5555 68.1958 75.8351 66.9434 66.5001 66.9434C57.1541 66.9434 56.4919 68.2761 52.8926 68.689C52.657 68.7167 52.4049 68.7278 52.1666 68.7278C50.4431 68.7278 48.8167 67.9242 47.7693 66.5582L44.3944 62.1554C43.4634 60.9417 41.7233 60.7118 40.5097 61.6428L27.315 71.7563C26.1014 72.6873 25.8714 74.4274 26.8024 75.641L35.1675 86.5553C37.2651 89.2901 40.5152 90.8945 43.9649 90.8945H55.1508L55.4168 93.1555H77.5835L77.8522 90.8945H89.0381C92.485 90.8945 95.7379 89.2901 97.8355 86.5553L106.353 75.4443C107.284 74.2279 107.054 72.4878 105.838 71.5568Z" fill="url(#paint1_linear)"/>
<path d="M102.055 83.0308H30.9419C29.0272 83.0308 27.531 84.6711 27.7249 86.558L31.0056 121.806C31.1746 123.443 32.5601 124.687 34.2226 124.687H98.7774C100.434 124.687 101.825 123.443 101.994 121.806L105.275 86.558C105.466 84.6711 103.97 83.0308 102.055 83.0308Z" fill="url(#paint2_linear)"/>
<path d="M71.0608 108.062H61.9364C61.7009 108.062 61.5042 107.857 61.482 107.591L60.9611 100.304C60.9389 100.008 61.1495 99.75 61.4155 99.75H71.5789C71.8449 99.75 72.0527 100.005 72.0333 100.304L71.5124 107.591C71.4958 107.857 71.2991 108.062 71.0608 108.062Z" fill="#A3B3C2"/>
<path d="M66.5 77.5833C61.9087 77.5833 58.1875 73.8621 58.1875 69.2708V58.1875H74.8125V69.2708C74.8125 73.8621 71.0913 77.5833 66.5 77.5833Z" fill="#D6A121"/>
<path d="M82.9009 46.007H80.4736V54.0562H83.2251C84.1727 54.0562 84.979 53.4273 85.1397 52.5683L85.7742 49.1435C86.0763 47.5004 84.7047 46.007 82.9009 46.007Z" fill="url(#paint3_linear)"/>
<path d="M50.0964 46.007H52.5236V54.0562H49.7722C48.8245 54.0562 48.0182 53.4273 47.8575 52.5683L47.223 49.1435C46.921 47.5004 48.2925 46.007 50.0964 46.007Z" fill="url(#paint4_linear)"/>
<path d="M66.5001 25.6191C58.5589 25.6191 50.4043 26.8272 50.4043 43.9953C50.4043 45.3696 50.4043 51.8257 50.4043 53.2942C50.4043 59.4233 60.0634 66.935 66.5001 66.935C72.9367 66.935 82.5958 59.4233 82.5958 53.2942C82.5958 51.8257 82.5958 45.3724 82.5958 43.9953C82.5958 26.8245 74.4413 25.6191 66.5001 25.6191Z" fill="url(#paint5_linear)"/>
<path d="M58.2206 25.3531C53.6764 25.3531 47.104 30.4792 47.104 38.7917C47.104 41.5625 48.1292 44.3971 50.4013 50.8365C51.4875 38.5451 53.9258 33.3581 57.406 33.3581C59.9274 33.3581 61.0773 34.9097 66.4971 34.9097C71.0745 34.9097 71.044 33.3581 75.5882 33.3581C81.551 33.3581 82.5928 48.8997 82.5928 50.8365C84.8677 44.3971 85.8957 41.5043 85.8957 38.7917C85.8957 33.25 82.8921 27.4922 77.4806 24.6327C74.5325 23.0783 58.2206 25.3531 58.2206 25.3531Z" fill="url(#paint6_radial)"/>
<path d="M66.0261 22.1666C57.83 22.1666 56.8768 26.4088 56.8768 27.0627C56.8768 27.4368 56.8408 28.2514 56.8408 29.6368C56.8408 31.025 58.2844 34.7379 66.8241 34.7379C71.9862 34.7379 79.376 31.5182 79.376 22.1666C79.376 22.1666 77.7163 22.1666 66.0261 22.1666Z" fill="url(#paint7_radial)"/>
<defs>
<linearGradient id="paint0_linear" x1="66.5002" y1="85.2004" x2="66.5002" y2="-17.2844" gradientUnits="userSpaceOnUse">
<stop stop-color="#FED97C"/>
<stop offset="0.446" stop-color="#F4BF3B"/>
<stop offset="1" stop-color="#F0B421"/>
</linearGradient>
<linearGradient id="paint1_linear" x1="66.5777" y1="90.6839" x2="66.5777" y2="50.371" gradientUnits="userSpaceOnUse">
<stop offset="0.074" stop-color="#21CC72"/>
<stop offset="0.666" stop-color="#0F9750"/>
<stop offset="1" stop-color="#088242"/>
</linearGradient>
<linearGradient id="paint2_linear" x1="65.5662" y1="82.8645" x2="70.8197" y2="125.715" gradientUnits="userSpaceOnUse">
<stop stop-color="#8795A1"/>
<stop offset="1" stop-color="#6D7882"/>
</linearGradient>
<linearGradient id="paint3_linear" x1="81.8119" y1="50.033" x2="85.184" y2="50.033" gradientUnits="userSpaceOnUse">
<stop stop-color="#C48F0C"/>
<stop offset="0.251" stop-color="#D19B16"/>
<stop offset="0.619" stop-color="#DCA51F"/>
<stop offset="1" stop-color="#E0A922"/>
</linearGradient>
<linearGradient id="paint4_linear" x1="51.1825" y1="50.033" x2="47.8104" y2="50.033" gradientUnits="userSpaceOnUse">
<stop stop-color="#C48F0C"/>
<stop offset="0.251" stop-color="#D19B16"/>
<stop offset="0.619" stop-color="#DCA51F"/>
<stop offset="1" stop-color="#E0A922"/>
</linearGradient>
<linearGradient id="paint5_linear" x1="66.5001" y1="70.26" x2="66.5001" y2="32.0142" gradientUnits="userSpaceOnUse">
<stop offset="0.125" stop-color="#FFDB80"/>
<stop offset="0.141" stop-color="#FED97C"/>
<stop offset="0.387" stop-color="#F4BF3B"/>
<stop offset="0.594" stop-color="#F0B421"/>
</linearGradient>
<radialGradient id="paint6_radial" cx="0" cy="0" r="1" gradientUnits="userSpaceOnUse" gradientTransform="translate(57.9088 27.8476) scale(47.7275 45.0775)">
<stop stop-color="#C26715"/>
<stop offset="0.508" stop-color="#B85515"/>
<stop offset="1" stop-color="#AD3F16"/>
</radialGradient>
<radialGradient id="paint7_radial" cx="0" cy="0" r="1" gradientUnits="userSpaceOnUse" gradientTransform="translate(63.5379 29.1528) scale(52.99 60.3192)">
<stop stop-color="#C26715"/>
<stop offset="0.508" stop-color="#B85515"/>
<stop offset="1" stop-color="#AD3F16"/>
</radialGradient>
</defs>
</svg>
