<?xml version="1.0" encoding="UTF-8"?>
<svg xmlns="http://www.w3.org/2000/svg" xmlns:xlink="http://www.w3.org/1999/xlink" viewBox="0 0 128 128" width="128px" height="128px">
<g id="surface13139599">
<path style="fill-rule:nonzero;fill:rgb(98.823529%,82.745099%,32.941177%);fill-opacity:1;stroke-width:10;stroke-linecap:butt;stroke-linejoin:round;stroke:rgb(90.588236%,29.803923%,23.529412%);stroke-opacity:1;stroke-miterlimit:10;" d="M 169.50046 28.249309 L 221.292549 84.749769 L 113 197.75069 L 4.70745 84.749769 L 56.499539 28.249309 Z M 169.50046 28.249309 " transform="matrix(0.542584,0,0,0.542584,2.688,2.688)"/>
<path style="fill-rule:nonzero;fill:rgb(91.764706%,60.000002%,9.411765%);fill-opacity:1;stroke-width:10;stroke-linecap:butt;stroke-linejoin:round;stroke:rgb(90.588236%,29.803923%,23.529412%);stroke-opacity:1;stroke-miterlimit:10;" d="M 113 197.75069 L 4.70745 84.749769 L 75.333026 84.749769 Z M 113 197.75069 " transform="matrix(0.542584,0,0,0.542584,2.688,2.688)"/>
<path style="fill-rule:nonzero;fill:rgb(91.764706%,60.000002%,9.411765%);fill-opacity:1;stroke-width:10;stroke-linecap:butt;stroke-linejoin:round;stroke:rgb(90.588236%,29.803923%,23.529412%);stroke-opacity:1;stroke-miterlimit:10;" d="M 221.292549 84.749769 L 113 197.75069 L 150.666973 84.749769 Z M 221.292549 84.749769 " transform="matrix(0.542584,0,0,0.542584,2.688,2.688)"/>
<path style="fill-rule:nonzero;fill:rgb(100%,69.411767%,14.509805%);fill-opacity:1;stroke-width:10;stroke-linecap:butt;stroke-linejoin:round;stroke:rgb(90.588236%,29.803923%,23.529412%);stroke-opacity:1;stroke-miterlimit:10;" d="M 113.33117 28.249309 L 75.333026 84.749769 L 56.499539 28.249309 Z M 113.33117 28.249309 " transform="matrix(0.542584,0,0,0.542584,2.688,2.688)"/>
<path style="fill-rule:nonzero;fill:rgb(100%,69.411767%,14.509805%);fill-opacity:1;stroke-width:10;stroke-linecap:butt;stroke-linejoin:round;stroke:rgb(90.588236%,29.803923%,23.529412%);stroke-opacity:1;stroke-miterlimit:10;" d="M 169.50046 28.249309 L 150.854156 84.137825 L 113.33117 28.249309 Z M 169.50046 28.249309 " transform="matrix(0.542584,0,0,0.542584,2.688,2.688)"/>
<path style="fill-rule:nonzero;fill:rgb(0%,0%,0%);fill-opacity:1;stroke-width:10;stroke-linecap:butt;stroke-linejoin:round;stroke:rgb(90.588236%,29.803923%,23.529412%);stroke-opacity:1;stroke-miterlimit:10;" d="M 151.278918 84.749769 L 150.666973 84.749769 L 150.854156 84.137825 Z M 151.278918 84.749769 " transform="matrix(0.542584,0,0,0.542584,2.688,2.688)"/>
<path style="fill-rule:nonzero;fill:rgb(98.823529%,82.745099%,32.941177%);fill-opacity:1;stroke-width:10;stroke-linecap:butt;stroke-linejoin:round;stroke:rgb(90.588236%,29.803923%,23.529412%);stroke-opacity:1;stroke-miterlimit:10;" d="M 150.854156 84.137825 L 150.666973 84.749769 L 75.333026 84.749769 L 113.33117 28.249309 Z M 150.854156 84.137825 " transform="matrix(0.542584,0,0,0.542584,2.688,2.688)"/>
<path style="fill-rule:nonzero;fill:rgb(100%,69.411767%,14.509805%);fill-opacity:1;stroke-width:10;stroke-linecap:butt;stroke-linejoin:round;stroke:rgb(90.588236%,29.803923%,23.529412%);stroke-opacity:1;stroke-miterlimit:10;" d="M 150.666973 84.749769 L 113 197.75069 L 75.333026 84.749769 Z M 150.666973 84.749769 " transform="matrix(0.542584,0,0,0.542584,2.688,2.688)"/>
<path style="fill-rule:nonzero;fill:rgb(0%,0%,0%);fill-opacity:1;stroke-width:10;stroke-linecap:butt;stroke-linejoin:round;stroke:rgb(90.588236%,29.803923%,23.529412%);stroke-opacity:1;stroke-miterlimit:10;" d="M 151.278918 84.749769 L 150.854156 84.137825 " transform="matrix(0.542584,0,0,0.542584,2.688,2.688)"/>
<path style=" stroke:none;fill-rule:nonzero;fill:rgb(98.823529%,82.745099%,32.941177%);fill-opacity:1;" d="M 94.65625 18.015625 L 122.757812 48.671875 L 64 109.984375 L 5.242188 48.671875 L 33.34375 18.015625 Z M 94.65625 18.015625 "/>
<path style=" stroke:none;fill-rule:nonzero;fill:rgb(91.764706%,60.000002%,9.411765%);fill-opacity:1;" d="M 64 109.984375 L 5.242188 48.671875 L 43.5625 48.671875 Z M 64 109.984375 "/>
<path style=" stroke:none;fill-rule:nonzero;fill:rgb(91.764706%,60.000002%,9.411765%);fill-opacity:1;" d="M 122.757812 48.671875 L 64 109.984375 L 84.4375 48.671875 Z M 122.757812 48.671875 "/>
<path style=" stroke:none;fill-rule:nonzero;fill:rgb(100%,69.411767%,14.509805%);fill-opacity:1;" d="M 64.179688 18.015625 L 43.5625 48.671875 L 33.34375 18.015625 Z M 64.179688 18.015625 "/>
<path style=" stroke:none;fill-rule:nonzero;fill:rgb(100%,69.411767%,14.509805%);fill-opacity:1;" d="M 94.65625 18.015625 L 84.539062 48.339844 L 64.179688 18.015625 Z M 94.65625 18.015625 "/>
<path style=" stroke:none;fill-rule:nonzero;fill:rgb(0%,0%,0%);fill-opacity:1;" d="M 84.769531 48.671875 L 84.4375 48.671875 L 84.539062 48.339844 Z M 84.769531 48.671875 "/>
<path style=" stroke:none;fill-rule:nonzero;fill:rgb(98.823529%,82.745099%,32.941177%);fill-opacity:1;" d="M 84.539062 48.339844 L 84.4375 48.671875 L 43.5625 48.671875 L 64.179688 18.015625 Z M 84.539062 48.339844 "/>
<path style=" stroke:none;fill-rule:nonzero;fill:rgb(100%,69.411767%,14.509805%);fill-opacity:1;" d="M 84.4375 48.671875 L 64 109.984375 L 43.5625 48.671875 Z M 84.4375 48.671875 "/>
<path style=" stroke:none;fill-rule:nonzero;fill:rgb(0%,0%,0%);fill-opacity:1;" d="M 84.769531 48.671875 L 84.539062 48.339844 "/>
</g>
</svg>
