<svg xmlns="http://www.w3.org/2000/svg"  viewBox="0 0 512 512" width="128px" height="128px"><path fill="#0ae58b" d="M495.43,458.02a4.161,4.161,0,0,1-.07,4.31L373.52,387.3a2.079,2.079,0,0,0,.1-2.24L257.82,177.04a2.077,2.077,0,0,0-1.76-1.05L256,47.68a4.161,4.161,0,0,1,3.64,2.1Z"/><path fill="#66ffb9" d="M135.17,389.44,16.67,462.38a4.139,4.139,0,0,1-.1-4.36L252.36,49.78a4.161,4.161,0,0,1,3.64-2.1l.06,128.31a2.087,2.087,0,0,0-1.88,1.05L135.23,387.46A2.11,2.11,0,0,0,135.17,389.44Z"/><path fill="#06c170" d="M256.06,175.99l.06,139.03a.076.076,0,0,0-.04.01L135.17,389.44a2.11,2.11,0,0,1,.06-1.98L254.18,177.04A2.087,2.087,0,0,1,256.06,175.99Z"/><path fill="#037f44" d="M256.16,315.03,373.52,387.3a2.048,2.048,0,0,1-1.72.91l-234.75,2.4a2.106,2.106,0,0,1-1.88-1.17l120.91-74.41a.076.076,0,0,1,.04-.01C256.14,315.02,256.15,315.02,256.16,315.03Z"/><path fill="#0bff96" d="M373.52,387.3l121.84,75.03a4.131,4.131,0,0,1-3.57,1.99H20.21a4.142,4.142,0,0,1-3.54-1.94l118.5-72.94a2.106,2.106,0,0,0,1.88,1.17l234.75-2.4A2.048,2.048,0,0,0,373.52,387.3Z"/><path fill="#07a05a" d="M373.62,385.06a2.079,2.079,0,0,1-.1,2.24L256.16,315.03c-.01-.01-.02-.01-.04-.01l-.06-139.03a2.077,2.077,0,0,1,1.76,1.05Z"/><path fill="#47b27f" d="M256.022,95.38,256,47.68a4.161,4.161,0,0,0-3.64,2.1L16.57,458.02a4.139,4.139,0,0,0,.1,4.36l42.486-26.151Z"/></svg>