<svg xmlns="http://www.w3.org/2000/svg"  viewBox="0 0 512 512" width="128px" height="128px"><path fill="#cacaff" d="M71.21,215.83l114.6,43.02,65.38,235.92L72.36,218.93A4.089,4.089,0,0,1,71.21,215.83Z"/><path fill="#8080ff" d="M321.62,258.85,440.8,215.13a4.1,4.1,0,0,1-1.18,2.87L257.01,494.79Z"/><path fill="#6161ff" d="M321.62,258.85,257.01,494.79a4.083,4.083,0,0,1-5.82-.02L185.81,258.85Z"/><path fill="#3131ff" d="M251.19,17.25l-65.38,241.6L71.21,215.83a4.042,4.042,0,0,1,1.13-2.59Z"/><path fill="#0303f9" d="M439.62,212.25a4.081,4.081,0,0,1,1.18,2.88L321.62,258.85,257.02,17.21Z"/><path fill="#0505dd" d="M257.02,17.21l64.6,241.64H185.81l65.38-241.6A4.069,4.069,0,0,1,257.02,17.21Z"/><path fill="#9797c9" d="M101.221,227.1,71.21,215.83a4.089,4.089,0,0,0,1.15,3.1L251.19,494.77l-17.074-61.61L102.36,229.93A4.073,4.073,0,0,1,101.221,227.1Z"/><path fill="#2424c6" d="M101.21,226.83a4.042,4.042,0,0,1,1.13-2.59L234.312,79.621,251.19,17.25,72.34,213.24a4.042,4.042,0,0,0-1.13,2.59L101.221,227.1C101.22,227.007,101.2,226.919,101.21,226.83Z"/></svg>