<svg fill="#000000" xmlns="http://www.w3.org/2000/svg"  viewBox="0 0 50 50" width="100px" height="100px"><path d="M 33 3 A 4 4 0 0 0 29 7 A 4 4 0 0 0 33 11 A 4 4 0 0 0 37 7 A 4 4 0 0 0 33 3 z M 24.5 11 C 19 11 14 16.92 14 23 C 14 29.08 16.2 34 22 34 L 31 34 L 33.119141 45.900391 C 33.329141 47.000391 34.329297 47.900391 35.529297 47.900391 C 37.119297 47.900391 38.219922 46.5 37.919922 45 L 35.5 31.400391 C 35.2 30.000391 34 29 32.5 29 L 25.050781 29 C 24.160781 29 23.32 28.620938 22.75 27.960938 C 22.18 27.320937 21.919531 26.469141 22.019531 25.619141 L 22.759766 18.890625 C 22.819766 18.340625 23.299375 17.939766 23.859375 18.009766 C 24.409375 18.069766 24.8 18.559375 24.75 19.109375 L 24.009766 25.859375 C 23.969766 26.159375 24.06 26.430625 24.25 26.640625 C 24.45 26.870625 24.740781 27 25.050781 27 L 33 27 C 34.105 27 35 26.105 35 25 C 35 23.895 34.105 23 33 23 L 28.273438 23 C 28.273438 23 29 18.511 29 17 C 29 14 29 11 24.5 11 z M 9.1992188 37 A 1.0001 1.0001 0 1 0 9.1992188 39 L 27 39 A 1.0001 1.0001 0 1 0 27 37 L 9.1992188 37 z"/></svg>